<svg id="undraw_business_deal_cpi9" xmlns="http://www.w3.org/2000/svg" xmlns:xlink="http://www.w3.org/1999/xlink" width="250" height="189.731" viewBox="0 0 250 189.731">
  <defs>
    <linearGradient id="linear-gradient" x1="0.5" y1="1" x2="0.5" gradientUnits="objectBoundingBox">
      <stop offset="0" stop-color="gray" stop-opacity="0.251"/>
      <stop offset="0.54" stop-color="gray" stop-opacity="0.122"/>
      <stop offset="1" stop-color="gray" stop-opacity="0.102"/>
    </linearGradient>
  </defs>
  <path id="Pfad_4734" data-name="Pfad 4734" d="M354.107,95.707c-.043.2-.085.408-.133.609a65.5,65.5,0,0,1-7.607,19.732c-.121.2-.243.408-.366.611a56.7,56.7,0,0,1-8.575,10.824,26,26,0,0,1-6.16,4.731c-3.3,1.727-7.167,2.427-10.964,3-3.943.6-7.941,1.1-11.928,1.635q-2.125.282-4.225.6c-3.852.57-7.676,1.23-11.408,2.1a66.883,66.883,0,0,0-13.311,4.479q-.506.229-1,.485c-.33.165-.662.332-.987.5s-.646.339-.964.513c-.165.089-.33.179-.492.272s-.323.176-.481.268c-.476.266-.943.538-1.411.813l-.018.011c-.309.181-.614.366-.916.552-1.727,1.049-3.416,2.143-5.106,3.245l-1.062.687-1.646,1.065c-.321.208-.648.417-.971.623-.229.151-.458.3-.708.458-1.2.756-2.416,1.5-3.664,2.205-.3.169-.593.339-.893.5a50.751,50.751,0,0,1-7.882,3.554l-.037.014a35.951,35.951,0,0,1-4.186,1.182c-.817.179-1.637.325-2.466.437a26.439,26.439,0,0,1-6.686.094c-4.367-.506-8.459-2.182-12.823-2.748-8.985-1.145-17.712,2.544-26.161,5.434q-3.116,1.065-6.279,1.994c-1.4.414-2.807.806-4.225,1.184a158.973,158.973,0,0,1-26.493,4.646,74.616,74.616,0,0,1-11.255.25,41.324,41.324,0,0,1-4.222-.458,26.876,26.876,0,0,1-12.727-5.083,24.854,24.854,0,0,1-6.6-8.472,36.972,36.972,0,0,1-3.414-10.2c-.087-.483-.165-.969-.229-1.454q-.172-1.246-.256-2.505a35.857,35.857,0,0,1,1.575-13.247c1.511-4.79,4.03-9.388,5.138-14.215q.069-.307.131-.611a21.166,21.166,0,0,0,.337-2.219c.566-5.931-1.6-11.713-3.3-17.513-.06-.2-.119-.405-.176-.609q-.275-.966-.527-1.93a40.247,40.247,0,0,1-.609-18.818c.044-.2.1-.408.147-.609a27.551,27.551,0,0,1,5.18-10.609,41.071,41.071,0,0,1,9.766-8.454q2.7-1.763,5.573-3.3,2.061-1.1,4.222-2.081a83.156,83.156,0,0,1,37.762-7.27c.687.03,1.374.066,2.061.117s1.438.11,2.157.176a154.886,154.886,0,0,1,24.673,4.932c2.718.721,5.431,1.461,8.143,2.187,1.207.321,2.411.641,3.618.953,5.91,1.527,11.907,2.91,17.98,3.943q2.109.364,4.222.664A120.954,120.954,0,0,0,266,56.844q2.883.057,5.768-.05,1.456-.053,2.915-.158c10.041-.708,19.745-3.075,29.466-5.287q2.109-.481,4.225-.948c1.85-.408,3.7-.8,5.56-1.166a52.618,52.618,0,0,1,32.642,3.726c2.446,1.065,4.889,2.352,6.386,4.351s1.873,4.454,2.152,6.824c.4,3.375.655,6.794.753,10.231,0,.2,0,.405.014.609A91.833,91.833,0,0,1,354.107,95.707Z" transform="translate(-107.287 -40.978)" fill="#3182ce" opacity="0.1"/>
  <path id="Pfad_4735" data-name="Pfad 4735" d="M286.276,116.378h-.756v.611h.856Zm-8.571,0a.038.038,0,0,0,0,.016c-.021.167-.044.334-.066.5v.092h6.549v-.037l.458-.575Zm-17.552,0V96.646h7.534c-.08-.053-.163-.108-.247-.158l-.11-.071-.142-.087c-.082-.048-.165-.1-.252-.142s-.14-.078-.213-.117l-.05-.027h-6.519V94.956l-.176.069-.185.087h-.014l-.039.021-.117.062-.117.062c-.114.062-.229.131-.343.2l-.11.073-.229.147c-.3.2-.586.4-.886.6-.076.048-.151.1-.229.14-.163.1-.33.188-.5.27a1.912,1.912,0,0,1-.229.1l-.124.048-.115.039h0a5.363,5.363,0,0,1-.824.215v19.29h-11.3c0,.023.016.041.023.064.062.183.124.364.183.547h11.106v21.149h.172l.2.011.359.021.575.069.263.025.286.03h.044l.506.062.108.014.245.034.35.05h0l.84-.037h0l.114.021a.8.8,0,0,1,.142.023V116.989h17.481V116.9c.023-.169.046-.337.066-.5a.039.039,0,0,1,0-.016Zm26.122,0h-.756v.611h.856Zm-9.043,0c-.027.2-.053.408-.08.611h7.3l.5-.611Zm-17.08,0V96.646h7.534c-.08-.053-.163-.108-.247-.158l-.11-.071-.142-.087c-.082-.048-.165-.1-.252-.142s-.14-.078-.213-.117l-.05-.027h-6.519V94.956l-.176.069-.186.087h-.014l-.039.021-.117.062-.117.062c-.114.062-.229.131-.343.2l-.11.073-.229.147c-.3.2-.586.4-.886.6-.076.048-.151.1-.229.14-.163.1-.33.188-.5.27a1.912,1.912,0,0,1-.229.1l-.124.048-.115.039h0a5.364,5.364,0,0,1-.824.215v19.29h-11.3c0,.023.016.041.023.064.062.181.126.364.185.547h11.1v21.147h.172l.2.011.359.021.575.071.263.025.286.03h.044l.506.062.108.014.245.034.35.05h0l.84-.037h0l.114.021a.8.8,0,0,1,.142.023V116.989h17.023c.027-.2.053-.408.08-.611Zm57.141-41.089H364.8c0-.2,0-.408-.014-.609H317.294V50.723q-2.116.458-4.225.948V74.68H261.4l-.131-.117.2-.174h0l19.219-17.27q-2.885.11-5.768.05L260.151,70.437V55.921q-2.116-.3-4.222-.664V69.768L234.338,50.362c-2.711-.726-5.425-1.465-8.143-2.187l29.363,26.388-.131.117h-53.9V43.263q-1.079-.1-2.157-.176c-.687-.05-1.374-.087-2.061-.117V74.68H159.538V50.24q-2.139.98-4.222,2.081V74.68H134.8c-.05.2-.1.405-.147.609h20.666V96.037h-19.53c.057.2.117.408.176.609h19.354v19.732H138.93q-.062.3-.131.611h16.517v55.169c1.374.213,2.8.362,4.222.458V116.989H197.3v50.727c1.417-.378,2.823-.769,4.225-1.184V116.989h54.407v44.32a35.95,35.95,0,0,0,4.186-1.182l.037-.014V116.989H313.07v20.787q2.107-.309,4.225-.593V116.989h37.627c.124-.2.245-.408.366-.611H317.294V96.646h45.6c.048-.2.089-.405.133-.609H317.294Zm-157.756,0H197.3V96.037H159.538Zm0,41.089V96.646H197.3v19.732Zm41.986-41.089h54.407V96.037H201.525Zm0,41.089V96.646h54.407v19.732Zm111.545,0H260.154V96.646H313.07Zm0-20.341H260.154V75.845l.742-.556H313.07Zm-35.364,20.341a.038.038,0,0,0,0,.016c-.021.167-.044.334-.066.5v.092h6.549v-.037l.458-.575Zm8.571,0h-.756v.611h.856Zm-26.122,0V96.646h7.534c-.08-.053-.163-.108-.247-.158l-.11-.071-.142-.087c-.082-.048-.165-.1-.252-.142s-.14-.078-.213-.117l-.05-.027h-6.519V94.956l-.176.069-.185.087h-.014l-.039.021-.117.062-.117.062c-.114.062-.229.131-.343.2l-.11.073-.229.147c-.3.2-.586.4-.886.6-.076.048-.151.1-.229.14-.163.1-.33.188-.5.27a1.912,1.912,0,0,1-.229.1l-.124.048-.115.039h0a5.363,5.363,0,0,1-.824.215v19.29h-11.3c0,.023.016.041.023.064.062.183.124.364.183.547h11.106v21.149h.172l.2.011.359.021.575.069.263.025.286.03h.044l.506.062.108.014.245.034.35.05h0l.84-.037h0l.114.021a.8.8,0,0,1,.142.023V116.989h17.481V116.9c.023-.169.046-.337.066-.5a.039.039,0,0,1,0-.016Z" transform="translate(-116.208 -41.308)" fill="#3182ce" opacity="0.1"/>
  <path id="Pfad_4736" data-name="Pfad 4736" d="M317.927,117.358h.327a.664.664,0,0,1-.4-.534h0c0-.421.63-.765,1.4-.765h9.791c.769,0,1.4.343,1.4.765h0c0,.419-.627.765-1.4.765h-.327a.657.657,0,0,1,.4.531c0,.36-.458.662-1.069.742h2.819c.767,0,1.4.343,1.4.765s-.63.765-1.4.765h-9.794c-.767,0-1.4-.346-1.4-.765,0-.359.458-.659,1.069-.742h-2.819c-.769,0-1.4-.343-1.4-.765S317.157,117.358,317.927,117.358Z" transform="translate(-256.44 -97.661)" fill="#3182ce" opacity="0.1"/>
  <path id="Pfad_4737" data-name="Pfad 4737" d="M781.367,149.128h.328a.664.664,0,0,1-.4-.534h0c0-.421.627-.765,1.4-.765h9.791c.769,0,1.4.343,1.4.765h0c0,.419-.63.763-1.4.763h-.325a.664.664,0,0,1,.4.534c0,.36-.458.662-1.069.742h2.819c.769,0,1.4.343,1.4.765s-.628.765-1.4.765h-9.791c-.769,0-1.4-.346-1.4-.765,0-.36.458-.662,1.069-.742h-2.819c-.767,0-1.4-.343-1.4-.765S780.6,149.128,781.367,149.128Z" transform="translate(-613.76 -122.156)" fill="#3182ce" opacity="0.1"/>
  <path id="Pfad_4738" data-name="Pfad 4738" d="M252.289,285.088h.325a.662.662,0,0,1-.4-.534h0c0-.419.63-.765,1.4-.765h9.794c.767,0,1.4.346,1.4.765h0c0,.421-.63.765-1.4.765h-.327a.655.655,0,0,1,.4.531c0,.36-.458.662-1.069.742h2.819c.769,0,1.4.346,1.4.765s-.63.765-1.4.765h-9.782c-.769,0-1.4-.343-1.4-.765,0-.357.458-.659,1.069-.742h-2.828c-.769,0-1.4-.344-1.4-.765S251.529,285.088,252.289,285.088Z" transform="translate(-205.831 -226.984)" fill="#3182ce" opacity="0.1"/>
  <ellipse id="Ellipse_173" data-name="Ellipse 173" cx="14.875" cy="48.95" rx="14.875" ry="48.95" transform="translate(131.929 134.676) rotate(-78.45)" fill="#3182ce" opacity="0.1"/>
  <path id="Pfad_4739" data-name="Pfad 4739" d="M828.56,381.285s2.6-12.78,12.544-11.6c0,0,6.87.472,8.282,4.969v9.94Z" transform="translate(-651.224 -293.154)" fill="#3a3768"/>
  <path id="Pfad_4740" data-name="Pfad 4740" d="M675.878,380.849,587.36,373.51,576,375.878l.71,15.857.774.094.882,23.812,86.86,15.619,9.233-7.811V397.636l1.182-.694Z" transform="translate(-444.105 -287.982)" fill="#d48a9b"/>
  <path id="Pfad_4741" data-name="Pfad 4741" d="M979.222,405.56l-.238,16.093-9.585,4.5-.119-16.805Z" transform="translate(-747.331 -312.693)" opacity="0.05"/>
  <path id="Pfad_4742" data-name="Pfad 4742" d="M975.294,478.94l.117,25.326-9.23,7.811.593-29.349Z" transform="translate(-744.94 -369.27)" opacity="0.05"/>
  <path id="Pfad_4743" data-name="Pfad 4743" d="M582.776,454.936l88.406,10.787.046-2.047L582.71,454.13Z" transform="translate(-449.279 -350.142)" opacity="0.05"/>
  <path id="Pfad_4744" data-name="Pfad 4744" d="M976.489,479.87v-.93l-8.759,3.865v2.052Z" transform="translate(-746.135 -369.27)" opacity="0.05"/>
  <path id="Pfad_4745" data-name="Pfad 4745" d="M575.48,375.878l11.36-2.368,88.518,7.339-9.94,3.785Z" transform="translate(-443.704 -287.982)" fill="#efc6cd"/>
  <path id="Pfad_4746" data-name="Pfad 4746" d="M948.521,407.55l4.344.284-7.2,2.155L942,409.725Z" transform="translate(-726.297 -314.228)" opacity="0.1"/>
  <path id="Pfad_4747" data-name="Pfad 4747" d="M948.521,406.72l4.344.284-7.2,2.157L942,408.9Z" transform="translate(-726.297 -313.588)" fill="#fff"/>
  <path id="Pfad_4748" data-name="Pfad 4748" d="M1022.32,444.489c.172-.073.353.066.536.1.105.021.213,0,.318.021.213.027.424.169.627.1" transform="translate(-800.616 -350.869)" fill="#d3dae1"/>
  <path id="Pfad_4749" data-name="Pfad 4749" d="M1021.34,445.059c.169-.073.353.064.536.1.105.018.213,0,.318.018.213.03.424.172.628.1" transform="translate(-799.86 -351.308)" fill="#d3dae1"/>
  <path id="Pfad_4750" data-name="Pfad 4750" d="M1019.08,446.2c.172-.073.355.064.538.1.1.021.213,0,.316.021.215.03.426.172.627.1" transform="translate(-798.117 -352.187)" fill="#d3dae1"/>
  <path id="Pfad_4751" data-name="Pfad 4751" d="M866.522,398.21l4.344.286-7.2,2.155L860,400.385Z" transform="translate(-663.074 -307.026)" opacity="0.1"/>
  <path id="Pfad_4752" data-name="Pfad 4752" d="M866.522,397.39l4.344.284-7.2,2.155L860,399.565Z" transform="translate(-663.074 -306.394)" fill="#fff"/>
  <path id="Pfad_4753" data-name="Pfad 4753" d="M940.32,435.159c.172-.073.353.064.536.1.105.018.213,0,.318.018.213.03.424.172.627.1" transform="translate(-737.392 -343.675)" fill="#d3dae1"/>
  <path id="Pfad_4754" data-name="Pfad 4754" d="M939.34,435.729c.169-.073.353.064.536.1.105.021.213,0,.318.021.213.03.424.172.627.1" transform="translate(-736.637 -344.114)" fill="#d3dae1"/>
  <path id="Pfad_4755" data-name="Pfad 4755" d="M937.08,436.859c.172-.073.355.066.538.1.1.021.213,0,.316.021.215.027.426.172.627.1" transform="translate(-734.894 -344.987)" fill="#d3dae1"/>
  <path id="Pfad_4756" data-name="Pfad 4756" d="M905.851,402.88l4.346.284-7.2,2.157-3.668-.266Z" transform="translate(-693.398 -310.627)" opacity="0.1"/>
  <path id="Pfad_4757" data-name="Pfad 4757" d="M905.851,402.06l4.346.284L903,404.5l-3.668-.266Z" transform="translate(-693.398 -309.995)" fill="#fff"/>
  <path id="Pfad_4758" data-name="Pfad 4758" d="M979.65,439.829c.172-.073.355.064.538.1.1.021.211,0,.316.021.213.027.426.172.627.1" transform="translate(-767.716 -347.276)" fill="#d3dae1"/>
  <path id="Pfad_4759" data-name="Pfad 4759" d="M978.67,440.389c.172-.073.355.066.538.1.1.021.211,0,.316.021.213.027.426.172.627.1" transform="translate(-766.961 -347.708)" fill="#d3dae1"/>
  <path id="Pfad_4760" data-name="Pfad 4760" d="M976.42,441.529c.169-.073.353.064.536.1.105.018.213,0,.318.018.213.03.424.172.627.1" transform="translate(-765.226 -348.586)" fill="#d3dae1"/>
  <ellipse id="Ellipse_174" data-name="Ellipse 174" cx="46.365" cy="9.544" rx="46.365" ry="9.544" transform="translate(67.743 162.125)" fill="#3182ce" opacity="0.1"/>
  <path id="Pfad_4761" data-name="Pfad 4761" d="M476.17,276a31.063,31.063,0,0,0-2.452-8.493l.149-1.466s.032-.733-.016-1.832a8.336,8.336,0,0,1,.268-2.033,4.187,4.187,0,0,0-.6-2.977c-.1-.144.05-2.931-.852-4.3s-6.911-3.909-6.911-3.909-.323-.676-.779-1.465l.041-.08a8.61,8.61,0,0,0-1.374-1.852c-.369-.394-.724-.618-1.01-.508a8.237,8.237,0,0,1-.266-1.161c.06.016.121.032.181.044a1.868,1.868,0,0,0,.756.018,2.245,2.245,0,0,0,1.241-1.1,17.52,17.52,0,0,0,3.162-7.737,4.919,4.919,0,0,0-.08-1.708,5.766,5.766,0,0,0-.536-1.248,10.029,10.029,0,0,0-1.511-2.228,8.609,8.609,0,0,0-4.06-2.223,14.055,14.055,0,0,0-5.244-.392c-.458.053-.916.128-1.374.158a14.268,14.268,0,0,1-1.743-.03l-3-.174-.014-.046-.5-.03a1.264,1.264,0,0,0,.245,1.223,2.087,2.087,0,0,1,.506,1.182,2.416,2.416,0,0,1-.579,1.145,1.1,1.1,0,0,0-.185,1.2.685.685,0,0,0,.121.133,1.509,1.509,0,0,0,1.1.293h.069a7.458,7.458,0,0,0-1.518,4.516,7.593,7.593,0,0,0,4.142,6.728c.044.149.087.3.128.458a14.029,14.029,0,0,1,.481,4.951l-.053.114-.032-.121s-3.531,2.4-4.58,3.029a6.617,6.617,0,0,0-2.152,3.371c-.05.586-1.7,9.427-1.7,9.427a21.659,21.659,0,0,0-.829,2.729l-2.109,1.853a32.429,32.429,0,0,1-5.61.1l.037.243a19.027,19.027,0,0,0-3.38-.458,3.584,3.584,0,0,0-1.832.245l-.044.021-.034.016a7.259,7.259,0,0,0-1.923.54c-.073.03-.14.06-.2.089l.014-.3-4.708-.243-2.4-.488s-.852-.687-1.353-.586-1.552-.586-1.552-.586a4.2,4.2,0,0,0-.774-.481c-.08-.554-.131-.891-.131-.891s-1.871-7.424-3.272-11.788a10.047,10.047,0,0,0-3.087-4.976c-.355-.618-.589-1.017-.589-1.017a4.548,4.548,0,0,0-1.211-1.772c-.034-.055-.06-.082-.073-.082a.268.268,0,0,0-.135.021,14.566,14.566,0,0,1-.021-6.558,7.238,7.238,0,0,0,2.642-5.578v-.195a7.206,7.206,0,0,0-1.7-4.648l-.078-.087a.61.61,0,0,0,.06-.048,1.227,1.227,0,0,0,.433-1.182,8.1,8.1,0,0,0-.623-1.2,7.794,7.794,0,0,1-.254-.98,3.022,3.022,0,0,0-.721-1.257l.034.092a4.351,4.351,0,0,0-3.831-1.287c-1.033.165-1.994.646-3.032.795-.744.105-1.5.037-2.251.112a5.842,5.842,0,0,0-2,.577,1.145,1.145,0,0,0-.424.311,1.676,1.676,0,0,0-.211.589,7.775,7.775,0,0,1-1.644,2.363,5.53,5.53,0,0,0-1.108,3.055,2.391,2.391,0,0,0,.08.836c.05.163.128.316.165.481a3.3,3.3,0,0,1-.277,1.5,2.929,2.929,0,0,0,.163,1.91c.9,2.024,3.874,2.7,4.493,4.825a5.911,5.911,0,0,0,1.486.458c.041.211.078.424.108.639a.172.172,0,0,0-.039.023,4.554,4.554,0,0,0-1,2.29l-.1.078c-.327.27-1.447,1.177-2.459,1.875-1.2.831-3.206,3.616-4.607,4.447s-2.555,5.954-2.253,7.815,1.552,7.082,1.051,8.988.751,10.6.751,10.6a12.8,12.8,0,0,1,2.455.728l-.025.38-.076,1.145s-2.269,8.207-1.4,14.524-.4,6.968-.4,6.968.266,2.8-.4,3.778a8.13,8.13,0,0,0-.8,3.126s-.066,4.82.066,6.183.2,3.845-.268,4.431a16.967,16.967,0,0,0-1.269,5.6c.066,1.172-1.669,3.845-.735,7.3s-2.748,3.517-2.748,3.517.469,5.267,1.47,6.773l.147.215c-.025.087-.05.179-.078.277-.378,1.374-.9,3.542-.536,4.067.534.783.8.65.8.65l.2,3.517s4.007,3.387,7.08,3.258,2.471-3.258,2.471-3.258l-2.617-6.787-.089-.229,2.908-5.5s.8-2.409,1-3.256,1.287-3.849,1.287-3.849,2.748-6.512,2.805-7.3.268-5.012.8-5.862a54.236,54.236,0,0,0,2-5.725l.037.032a1.93,1.93,0,0,1,.5,1.921,15.349,15.349,0,0,0-.135,3.776,25.685,25.685,0,0,1-.4,3.258,69.647,69.647,0,0,0,.135,12.308,34.851,34.851,0,0,1,.343,6.157c-.314,1.294-.589,2.9-.078,3.091a32.31,32.31,0,0,0,5.278.261s1.869-.653,4.408,1.628,10.35-.65,10.35-.65,2.4-.653-2.338-2.539a40.326,40.326,0,0,1-6.842-3.133c.032-.062.066-.124.1-.19,0,0-1.937-1.832-.334-5.079a14.143,14.143,0,0,0,1.536-5.993l.268-10.943-.8-14.527-.621-15.246.11-.037c.105,2.8.653,9.475,3.517,8.182,3.607-1.628.534-5.862.534-5.862l-1.619-3.155.483-.165-1.811-5.853a13.2,13.2,0,0,1-.069-3.451,13.672,13.672,0,0,0-.041-2.015,36.136,36.136,0,0,1,5.051-.753c.481.117,3.171.14,4.229.144-.346.27-.623.538-.623.538l4.307,2.9s1.461-.8,1.765-1.646a1.9,1.9,0,0,0,.806-.43c.046,1,.311,2.084,1.237,2.109a1.6,1.6,0,0,0,.673-.133l7.044-1.395-.6,3.776.421.749c-.213,3.185-.458,6.567-.673,9.542l-.1.65.05.011c-.334,4.58-.6,8.049-.6,8.049a4.22,4.22,0,0,1,1.756-1.765l.046,6.8s.353,10.746.353,12.212.048,4.738.048,4.738.753,4,1.2,5.324a58.741,58.741,0,0,1,.8,7.328s1.053,1.66.6,2.29,1.754,2,1.754,2a8.6,8.6,0,0,0-1.5,3.176c-.011.147.133.3.394.458-.082.066-.167.133-.261.2a4.575,4.575,0,0,1-3.036.614c-3.909-.343-6.663,3.272-4.259,4s9.617.879,9.617.879,2.185-1.362,3.893-.749c-.025,1.433.046,2.748.057,2.922l-.021.016a15.883,15.883,0,0,1-4.887,3.135c-2.748.927-3.357,4.69.2,5.177a32.5,32.5,0,0,0,8.766-.586,16.158,16.158,0,0,1,4.758-2.441c2.054-.44,3.808-1.417,3.458-2.59-.229-.749-.817-2.711-1.216-4.03q-.034-.119-.069-.229c.062-.137.124-.279.181-.426,0,0-1.051-5.47-.2-6.837s.4-15.047.4-15.047-1.454-3.467-.7-5.567-1.2-5.081-1.2-5.081a92.831,92.831,0,0,1,.785-9.3l.076-.412a18.752,18.752,0,0,0,2.794-1.079s.5-7.524.8-9.233c.03-.16.071-.419.121-.756l.229-1.207h0l.27-1.374h0l.916-4.683L471.389,287l4.259-4.351S476.671,280.348,476.17,276Zm-65.682-26.867-.032.023a.391.391,0,0,1-.011-.05A.208.208,0,0,0,410.488,249.133Zm42.08,5.333-.165.359.6-.6-.817.916.275-.577Zm-4.067,8.4c-.158.419-.327.872-.5,1.344l.323-.964Z" transform="translate(-311.29 -182.488)" fill="url(#linear-gradient)"/>
  <path id="Pfad_4762" data-name="Pfad 4762" d="M595.638,441.73s-.561,3.735,1.122,3.783,2.807-2.881,2.807-2.881l-.687-2.343Z" transform="translate(-471.567 -347.648)" fill="#585b8a"/>
  <path id="Pfad_4763" data-name="Pfad 4763" d="M595.638,441.73s-.561,3.735,1.122,3.783,2.807-2.881,2.807-2.881l-.687-2.343Z" transform="translate(-471.567 -347.648)" opacity="0.2"/>
  <path id="Pfad_4764" data-name="Pfad 4764" d="M404.389,757.1c-3,.13-6.9-3.254-6.9-3.254l-.195-3.515s-.259.13-.781-.65c-.35-.524.153-2.7.522-4.065.179-.669.325-1.145.325-1.145l6.572,1.759.314.831,2.551,6.782S407.381,756.968,404.389,757.1Z" transform="translate(-318.016 -582.175)" fill="#636992"/>
  <path id="Pfad_4765" data-name="Pfad 4765" d="M496.544,730.976s-7.614,2.929-10.075.65-4.3-1.628-4.3-1.628a30.672,30.672,0,0,1-5.143-.261c-.5-.19-.229-1.818.082-3.114.211-.9.44-1.635.44-1.635s7.483-2.539,8.656-.978a5.615,5.615,0,0,0,1.248,1.191,36.324,36.324,0,0,0,6.824,3.236C498.886,730.324,496.544,730.976,496.544,730.976Z" transform="translate(-379.975 -566.009)" fill="#636992"/>
  <path id="Pfad_4766" data-name="Pfad 4766" d="M526.987,496.35l2.081,4.165s3,4.232-.52,5.857S525.1,497,525.1,497Z" transform="translate(-417.251 -390.871)" fill="#ffd6d6"/>
  <path id="Pfad_4767" data-name="Pfad 4767" d="M495.25,338.61s2.278,1.042,3.645,5.4,3.19,11.781,3.19,11.781,1.237,8.395,1.04,10.478a13.51,13.51,0,0,0,.066,3.449l1.756,5.857-3.515,1.237-5.4-20.7Z" transform="translate(-394.236 -269.251)" fill="#dce6f2"/>
  <path id="Pfad_4768" data-name="Pfad 4768" d="M495.25,338.61s2.278,1.042,3.645,5.4,3.19,11.781,3.19,11.781,1.237,8.395,1.04,10.478a13.51,13.51,0,0,0,.066,3.449l1.756,5.857-3.515,1.237-5.4-20.7Z" transform="translate(-394.236 -269.251)" opacity="0.05"/>
  <path id="Pfad_4769" data-name="Pfad 4769" d="M406.064,746.246l.314.831-.385.735c-1.5.65-5.207.131-5.207.131s-.687-.872-1.626-2.308c.179-.669.325-1.145.325-1.145Z" transform="translate(-320.149 -582.191)" opacity="0.1"/>
  <path id="Pfad_4770" data-name="Pfad 4770" d="M488.832,725.508c-1.9,4.3-8.351,2.7-10.144,2.166-.3-.089-.458-.149-.458-.149s.011-.35.016-.9c.211-.9.44-1.635.44-1.635s7.483-2.539,8.656-.978a5.612,5.612,0,0,0,1.248,1.191A2.207,2.207,0,0,0,488.832,725.508Z" transform="translate(-381.113 -566.009)" opacity="0.1"/>
  <path id="Pfad_4771" data-name="Pfad 4771" d="M422.5,517.506c-1.562,3.252.327,5.077.327,5.077-1.9,4.3-8.351,2.7-10.144,2.164-.3-.087-.458-.146-.458-.146a39.647,39.647,0,0,0-.325-6.641,71.3,71.3,0,0,1-.131-12.3,26.188,26.188,0,0,0,.389-3.256,15.866,15.866,0,0,1,.131-3.774,1.949,1.949,0,0,0-.485-1.919l-.034-.034a54.194,54.194,0,0,1-1.953,5.725c-.522.843-.714,5.077-.781,5.857s-2.734,7.291-2.734,7.291-1.04,2.993-1.234,3.838-.978,3.256-.978,3.256L400.95,528.7c-1.5.65-5.207.13-5.207.13s-.714-.916-1.692-2.409-1.431-6.766-1.431-6.766,3.579-.066,2.668-3.515.781-6.118.717-7.291a17.326,17.326,0,0,1,1.237-5.6c.456-.586.389-3.059.259-4.426s-.064-6.183-.064-6.183a8.267,8.267,0,0,1,.781-3.123c.65-.975.392-3.776.392-3.776s1.234-.65.389-6.963,1.374-14.513,1.374-14.513l.076-1.145.119-1.855s18.614-1.172,20.112.259a4.938,4.938,0,0,1,.95,1.362,13.557,13.557,0,0,1,1.076,3.465l.781,19.72.781,14.513L424,511.521A14.536,14.536,0,0,1,422.5,517.506Z" transform="translate(-315.107 -363.473)" fill="#565988"/>
  <path id="Pfad_4772" data-name="Pfad 4772" d="M480.764,538.42l-1.953,42.3-2.345,3.856c-.3-.087-.458-.147-.458-.147a39.644,39.644,0,0,0-.325-6.641,71.3,71.3,0,0,1-.131-12.3,26.186,26.186,0,0,0,.389-3.256,15.865,15.865,0,0,1,.13-3.774,1.949,1.949,0,0,0-.485-1.919l.032-.229Z" transform="translate(-378.892 -423.307)" opacity="0.1"/>
  <path id="Pfad_4773" data-name="Pfad 4773" d="M406.708,731.757s5.077-2.017,5.857-1.374-5.986,1.626-5.986,1.626Z" transform="translate(-325.87 -571.217)" opacity="0.1"/>
  <path id="Pfad_4774" data-name="Pfad 4774" d="M500.7,713.5c-.195.066-5.141,1.832-4.685,3.71S500.7,713.5,500.7,713.5Z" transform="translate(-394.799 -558.297)" opacity="0.1"/>
  <path id="Pfad_4775" data-name="Pfad 4775" d="M449.07,284.926s1.658,4,.781,6.054,9.468,5.564,9.468,5.564-3.025-7.811-.1-12.2S449.07,284.926,449.07,284.926Z" transform="translate(-358.631 -226.01)" fill="#ffd6d6"/>
  <path id="Pfad_4776" data-name="Pfad 4776" d="M661.129,772.388a15.622,15.622,0,0,0-4.637,2.441,30.89,30.89,0,0,1-8.543.586c-3.467-.488-2.878-4.248-.195-5.175a15.582,15.582,0,0,0,4.765-3.13c.44-.405.7-.687.7-.687l9.716-1.953s.158.543.378,1.291c.389,1.321.964,3.281,1.184,4.028C664.838,770.973,663.13,771.949,661.129,772.388Z" transform="translate(-510.114 -597.596)" fill="#505484"/>
  <path id="Pfad_4777" data-name="Pfad 4777" d="M634.7,741.378s-4.1.44-5.809-.536-4.149.586-4.149.586-7.03-.147-9.372-.879.341-4.351,4.149-4a4.374,4.374,0,0,0,2.961-.614A3.119,3.119,0,0,0,623.768,734l8.243.488,1.145,2.922Z" transform="translate(-486.174 -574.103)" fill="#505484"/>
  <path id="Pfad_4778" data-name="Pfad 4778" d="M660.173,738.742s-9.581-1.566-10.8-2.81A3.119,3.119,0,0,0,650.659,734l8.243.488,1.145,2.922Z" transform="translate(-513.065 -574.103)" opacity="0.1"/>
  <path id="Pfad_4779" data-name="Pfad 4779" d="M634.52,513.194l.1,14.3s.341,10.739.341,12.2.048,4.733.048,4.733.733,4,1.172,5.322a59.757,59.757,0,0,1,.781,7.327s1.026,1.66.586,2.29,1.708,2,1.708,2a8.553,8.553,0,0,0-1.463,3.174c-.089,1.269,10.932,3.071,10.932,3.071L644.43,523.59l-3.419-11.03Z" transform="translate(-501.616 -403.369)" fill="#575988"/>
  <path id="Pfad_4780" data-name="Pfad 4780" d="M634.52,513.194l.1,14.3s.341,10.739.341,12.2.048,4.733.048,4.733.733,4,1.172,5.322a59.757,59.757,0,0,1,.781,7.327s1.026,1.66.586,2.29,1.708,2,1.708,2a8.553,8.553,0,0,0-1.463,3.174c-.089,1.269,10.932,3.071,10.932,3.071L644.43,523.59l-3.419-11.03Z" transform="translate(-501.616 -403.369)" opacity="0.1"/>
  <path id="Pfad_4781" data-name="Pfad 4781" d="M686.8,765.773c-3.19,7.6-10.776,1.736-10.776,1.736s0-.147-.018-.4c.44-.405.7-.687.7-.687l9.716-1.953S686.584,765.024,686.8,765.773Z" transform="translate(-533.605 -597.596)" opacity="0.1"/>
  <path id="Pfad_4782" data-name="Pfad 4782" d="M661.648,565.492c-3.126,8.014-10.886,2-10.886,2a28.047,28.047,0,0,1,.245-6.052c.49-1.9-.538-7.616-.538-7.616s-.586-5.077-1.122-6.247a11.13,11.13,0,0,1-.488-3.71,7.083,7.083,0,0,0-.245-2.833,19.067,19.067,0,0,1-.687-3.71,39.143,39.143,0,0,0-.44-5.905l-1.514-7.557L643.24,508.39l.854-.147,15.3-2.684s2.881,14.655,1.9,16.157a6.3,6.3,0,0,0-.55,1.981c-.559,3.325-.767,9.294-.767,9.294s1.9,2.977,1.172,5.077.687,5.564.687,5.564.44,13.668-.392,15.035S661.648,565.492,661.648,565.492Z" transform="translate(-508.339 -397.972)" fill="#575988"/>
  <path id="Pfad_4783" data-name="Pfad 4783" d="M678.849,298.13s-13.863,9.762-10.739,4.88c1.683-2.629,1.374-5.976.714-8.5a20.06,20.06,0,0,0-1.374-3.73s11.779-5.01,10.217-.52a8.414,8.414,0,0,0-.458,3.261A8.7,8.7,0,0,0,678.849,298.13Z" transform="translate(-527.005 -230.528)" fill="#d28690"/>
  <path id="Pfad_4784" data-name="Pfad 4784" d="M584.082,426.005s-5.857-1.692-6.833-.032.293,5.3,2.061,5.889,5.825-1.985,5.825-1.985Z" transform="translate(-457.198 -336.047)" fill="#d28690"/>
  <path id="Pfad_4785" data-name="Pfad 4785" d="M609.237,416l-2.441,2.246a30.88,30.88,0,0,1-5.468.1s1.124,7.518-.488,8.445l9.86-2Z" transform="translate(-475.648 -328.92)" fill="#585b8a"/>
  <path id="Pfad_4786" data-name="Pfad 4786" d="M609.237,416l-2.441,2.246a30.88,30.88,0,0,1-5.468.1s1.124,7.518-.488,8.445l9.86-2Z" transform="translate(-475.648 -328.92)" opacity="0.1"/>
  <path id="Pfad_4787" data-name="Pfad 4787" d="M451.286,249.443a7.327,7.327,0,0,1-7.327,7.327c-3.76-1.807-7.327-3.277-7.327-7.327a7.327,7.327,0,1,1,14.644,0Z" transform="translate(-349.035 -194.628)" opacity="0.1"/>
  <path id="Pfad_4788" data-name="Pfad 4788" d="M451.394,249.618a7.314,7.314,0,1,1-1.658-4.632A7.314,7.314,0,0,1,451.394,249.618Z" transform="translate(-349.144 -195.001)" fill="#ffd6d6"/>
  <path id="Pfad_4789" data-name="Pfad 4789" d="M448,462.919a16.557,16.557,0,0,1-2.269,1.177s-3.71-.538-4.245.1-5.267.879-5.267.879-7.224-.341-8.3-1.269a4.4,4.4,0,0,0-1.1-.65l.119-1.855s18.614-1.172,20.112.259a4.937,4.937,0,0,1,.946,1.362Z" transform="translate(-341.475 -363.496)" opacity="0.1"/>
  <path id="Pfad_4790" data-name="Pfad 4790" d="M434.849,343.932c-.147.829-3.174,2.1-3.174,2.1s-3.71-.536-4.245.1-5.267.879-5.267.879-7.224-.343-8.3-1.271a9.316,9.316,0,0,0-3.467-1.374s-1.22-8.688-.73-10.59-.733-7.128-1.026-8.983.829-6.979,2.2-7.808,3.32-3.613,4.49-4.442c.987-.7,2.077-1.6,2.4-1.875l.094-.078a4.621,4.621,0,0,1,.978-2.29c.781-.776,7.955,4.93,7.955,4.93s.05.44.538-.389c.11-.185,1.056,1.179,1.22,1.756,0,0,3.9,6.835,4.149,8.243s1.269,6,1.463,7.126c.05.289.133,1.3.229,2.656.018.266.034.547.055.84.144,2.249.3,5.12.394,7.291,0,.247.021.485.027.714A24.307,24.307,0,0,1,434.849,343.932Z" transform="translate(-327.424 -245.822)" fill="#dce6f2"/>
  <path id="Pfad_4791" data-name="Pfad 4791" d="M415,387.21s2.684,3.27,3.563,3.27S415,387.21,415,387.21Z" transform="translate(-332.362 -306.722)" opacity="0.1"/>
  <path id="Pfad_4792" data-name="Pfad 4792" d="M426.687,417.91s-4.394,4.783-3.808,5.663S426.687,417.91,426.687,417.91Z" transform="translate(-338.395 -330.392)" opacity="0.1"/>
  <path id="Pfad_4793" data-name="Pfad 4793" d="M425.62,434.5s5.038-5.516,5.267-7.419Z" transform="translate(-340.55 -337.463)" opacity="0.1"/>
  <path id="Pfad_4794" data-name="Pfad 4794" d="M453.33,441.039s5.809-3.075,6.3-5.516S453.33,441.039,453.33,441.039Z" transform="translate(-361.915 -343.614)" opacity="0.1"/>
  <path id="Pfad_4795" data-name="Pfad 4795" d="M482.806,329.437,482,331.388l1.342.634,1.319,3.687s3.636,7.273,3.49,11.055a67.015,67.015,0,0,0,.659,9.469l2.1-.389-.989-11.126a16.051,16.051,0,0,0-1.278-4.994c-1.676-3.838-4.795-10.923-4.992-10.923-.268,0-.08.1-.08.1Z" transform="translate(-384.02 -261.687)" opacity="0.1"/>
  <path id="Pfad_4796" data-name="Pfad 4796" d="M483.656,328.584l-.806,1.953,1.344.634,1.317,3.687s3.636,7.273,3.49,11.055a67.017,67.017,0,0,0,.659,9.469l2.1-.389-.992-11.126a15.987,15.987,0,0,0-1.275-4.994c-1.676-3.84-4.795-10.923-4.99-10.923-.27,0-.082.1-.082.1Z" transform="translate(-384.675 -261.032)" fill="#575989"/>
  <path id="Pfad_4797" data-name="Pfad 4797" d="M573.827,433.118a18.3,18.3,0,0,1-4.445-1.832l-.412-.229.05-3.781a6.638,6.638,0,0,1,.746-.378c1.3-.568,3.968-1.34,5.306,1.145C576.877,431.375,575.121,433.2,573.827,433.118Z" transform="translate(-451.075 -336.878)" fill="#ffd6d6"/>
  <path id="Pfad_4798" data-name="Pfad 4798" d="M449.6,244.9a1.083,1.083,0,0,1-.341.14c-.85.185-1.816-.545-2.544-.076a1.843,1.843,0,0,0-.607,1.413q-.156,1.374-.311,2.729a3.369,3.369,0,0,1-.2.941,2.361,2.361,0,0,1-2.246,1.2,1.34,1.34,0,0,1-.969-.321c-.158-.16-.243-.385-.417-.531-1.145-.959-1.493,1.392-1.191,2.061.485,1.092,2.21,2.146,1.486,3.533a1.323,1.323,0,0,1-.531.534A7.327,7.327,0,1,1,449.6,244.9Z" transform="translate(-349.011 -194.918)" opacity="0.1"/>
  <path id="Pfad_4799" data-name="Pfad 4799" d="M433.837,239.237c.172.144.259.369.417.529a1.342,1.342,0,0,0,.969.321,2.349,2.349,0,0,0,2.244-1.2,3.26,3.26,0,0,0,.2-.939l.311-2.73a1.836,1.836,0,0,1,.607-1.413c.728-.458,1.694.261,2.544.076a1.243,1.243,0,0,0,.916-1.433,8.071,8.071,0,0,0-.6-1.2,7.841,7.841,0,0,1-.25-.978,3.877,3.877,0,0,0-4.374-2.478c-1.008.167-1.944.648-2.954.795-.724.105-1.463.037-2.194.115a5.537,5.537,0,0,0-1.946.575,1.131,1.131,0,0,0-.412.311,1.719,1.719,0,0,0-.206.586,7.828,7.828,0,0,1-1.6,2.363,5.631,5.631,0,0,0-1.085,3.048,2.443,2.443,0,0,0,.078.836c.048.16.124.316.16.481a3.351,3.351,0,0,1-.27,1.5,3,3,0,0,0,.16,1.91c.879,2.022,3.776,2.7,4.378,4.82a4.809,4.809,0,0,0,1.7.458,1.643,1.643,0,0,0,1.5-.767c.721-1.374-1-2.441-1.486-3.531C432.342,240.625,432.683,238.275,433.837,239.237Z" transform="translate(-341.075 -183.77)" fill="#353045"/>
  <path id="Pfad_4800" data-name="Pfad 4800" d="M677.71,290.256a8.411,8.411,0,0,0-.458,3.261c-.353.3-.737-.6-1.145-.366-1.117.646-2.409,2.182-3.792,2.182a7.6,7.6,0,0,1-3.451-.827,20.065,20.065,0,0,0-1.374-3.73S679.271,285.765,677.71,290.256Z" transform="translate(-527.036 -230.528)" opacity="0.1"/>
  <path id="Pfad_4801" data-name="Pfad 4801" d="M670.492,258.116a7.616,7.616,0,1,1-7.616-7.616A7.616,7.616,0,0,1,670.492,258.116Z" transform="translate(-517.606 -201.317)" fill="#d28690"/>
  <path id="Pfad_4802" data-name="Pfad 4802" d="M657.021,323.866s-1.433,1.562-1.628,1.69-4.351,17.632-4.424,17.836-4.948,16.008-4.948,16.008l-7.811,3.84.653-19.331,5.725-15.942s1.889-2.148,2.473-2.929,7.875-5.468,7.875-5.468l1.246,2.567Z" transform="translate(-504.46 -254.571)" fill="#f0f3f7"/>
  <path id="Pfad_4803" data-name="Pfad 4803" d="M685.125,323.847l-8.981,6.43L676,326.746c.586-.781,7.875-5.466,7.875-5.466Z" transform="translate(-533.597 -255.889)" opacity="0.1"/>
  <path id="Pfad_4804" data-name="Pfad 4804" d="M685.99,322.137l-8.981,6.43-.14-3.529c.586-.783,7.875-5.468,7.875-5.468Z" transform="translate(-534.268 -254.571)" fill="#f0f3f7"/>
  <path id="Pfad_4805" data-name="Pfad 4805" d="M638.312,336.59l.3,1.571L636.6,340.2l1.6-3.588s-3.435,2.393-4.465,3.027a6.519,6.519,0,0,0-2.1,3.368c-.039.586-1.66,9.42-1.66,9.42s-1.22,3.27-.877,4.2-1.855,30.166-1.855,30.166a4.351,4.351,0,0,1,2.936-2.251l-.783-17.279s.953-11.5,1-11.642,2.221-6.81,2.221-6.81Z" transform="translate(-496.01 -267.693)" fill="#585b8a"/>
  <path id="Pfad_4806" data-name="Pfad 4806" d="M642.471,344.3l-.156,3.206s-2.173,6.858-2.9,7.98-2.954,7.811-2.954,7.811l-1.253,11.619-2.148.978L632,373.944l1.759-11.22s3.318-9.468,3.808-10.446l2.448-5.157Z" transform="translate(-499.673 -273.638)" opacity="0.1"/>
  <path id="Pfad_4807" data-name="Pfad 4807" d="M641.588,343.45l-.153,3.206s-2.173,6.858-2.906,7.98-2.952,7.811-2.952,7.811l-1.246,11.616-2.148.975-1.074-1.951,1.759-11.22s3.318-9.471,3.806-10.446l2.466-5.15Z" transform="translate(-498.986 -272.983)" fill="#663d5c"/>
  <path id="Pfad_4808" data-name="Pfad 4808" d="M566.31,446.725l4.2,2.906s2.961-1.66,1.237-2.734a7.646,7.646,0,0,0-3.808-1.237C567.382,445.66,566.31,446.725,566.31,446.725Z" transform="translate(-449.024 -351.788)" fill="#d28690"/>
  <path id="Pfad_4809" data-name="Pfad 4809" d="M578.974,425.55a.646.646,0,0,0-.3.552c0,.891.1,3.249.847,2.185.916-1.3.749-2.473,2.148-1.628a8.244,8.244,0,0,1,2.244,2.061l-.389-2.8S580.644,424.5,578.974,425.55Z" transform="translate(-458.554 -335.985)" fill="#d28690"/>
  <path id="Pfad_4810" data-name="Pfad 4810" d="M663.789,521.677a6.3,6.3,0,0,0-.549,1.981,16.545,16.545,0,0,1-14.822-2.86,74.7,74.7,0,0,1-1.855-7.808,25.444,25.444,0,0,1,.023-4.786l15.3-2.684S664.766,520.164,663.789,521.677Z" transform="translate(-510.823 -397.941)" opacity="0.1"/>
  <path id="Pfad_4811" data-name="Pfad 4811" d="M672.531,334.4a15.17,15.17,0,0,0-.243,3.856l-3.515,16.6s-1.708,12.789-2,14.5-.781,9.226-.781,9.226a16.533,16.533,0,0,1-17.632-1.756,74.824,74.824,0,0,1-1.855-7.811c-.49-2.9.953-14.513,1.635-19.672.2-1.527.341-2.489.341-2.489l2.562-9.519s3.148-8.03,4.321-10.373,5.88-7.6,5.88-7.6c.584-.371,1.518.939,2.212,2.132.524.9.916,1.74.916,1.74s5.857,2.537,6.734,3.893.733,4.149.831,4.3A4.3,4.3,0,0,1,672.531,334.4Z" transform="translate(-510.779 -254.355)" fill="#585b8a"/>
  <path id="Pfad_4812" data-name="Pfad 4812" d="M665.245,329.153s.44,2.587-.687,3.368c-1.088.756-9.185,16.677-9.688,17.671.2-1.53.341-2.491.341-2.491l2.562-9.517s3.151-8.03,4.321-10.375,5.883-7.6,5.883-7.6c.584-.371,1.516.939,2.21,2.132C669.14,324.509,666.958,328.617,665.245,329.153Z" transform="translate(-517.306 -255.01)" opacity="0.1"/>
  <path id="Pfad_4813" data-name="Pfad 4813" d="M664.38,328.3s.437,2.587-.687,3.368S654.511,348.346,654,349.34c.2-1.527.341-2.489.341-2.489l2.562-9.519s3.149-8.03,4.321-10.373,5.88-7.6,5.88-7.6c.584-.371,1.518.939,2.212,2.132C668.275,323.657,666.09,327.767,664.38,328.3Z" transform="translate(-516.635 -254.355)" fill="#585b8a"/>
  <path id="Pfad_4814" data-name="Pfad 4814" d="M603.089,410.092l-2.755,14.332v0l-.263,1.372v0l-.593,3.084-2.53-.536-1.179-.25-16.32-3.458-1.2-.254-2.739-.579.536-3.558.222-1.479,1.976-13.121Z" transform="translate(-443.728 -312.763)" fill="#3182ce"/>
  <path id="Pfad_4815" data-name="Pfad 4815" d="M665.777,511.92s-6.492,2.343-5.077,5.125,10.494-2.148,10.494-2.148Z" transform="translate(-521.645 -402.876)" fill="#d28690"/>
  <path id="Pfad_4816" data-name="Pfad 4816" d="M703.8,599.1c0,.195.245,2.686,1.221,3.563S703.8,599.1,703.8,599.1Z" transform="translate(-555.031 -470.093)" opacity="0.1"/>
  <path id="Pfad_4817" data-name="Pfad 4817" d="M675.24,637.68s1.17,3.222,5.807,4.541S675.24,637.68,675.24,637.68Z" transform="translate(-533.011 -499.839)" opacity="0.1"/>
  <path id="Pfad_4818" data-name="Pfad 4818" d="M675.48,258.183a7.614,7.614,0,0,1-3.817,6.6,4.054,4.054,0,0,1-1.145-.955,1.48,1.48,0,0,1-.391-1.433c.16-.387.584-.632.687-1.033a1.52,1.52,0,0,0-.037-.737c-.085-.378-.165-.756-.247-1.131-.071-.321-.2-.7-.515-.776s-.584.188-.833.385a2.613,2.613,0,0,1-2.519.414c-.735-.4-.529-1.722-.648-2.439a.426.426,0,0,0-.16-.323.669.669,0,0,0-.332-.023.956.956,0,0,1-.829-.735,6.33,6.33,0,0,1-.133-1.179,1.316,1.316,0,0,0-.527-1.019,1.628,1.628,0,0,0-.868-.142l-1.436.016a7.616,7.616,0,0,1,13.739,4.516Z" transform="translate(-522.595 -201.383)" opacity="0.1"/>
  <path id="Pfad_4819" data-name="Pfad 4819" d="M664.906,252.189c.25-.2.524-.458.833-.382s.442.458.513.774l.247,1.129a1.534,1.534,0,0,1,.039.74c-.117.4-.538.646-.7,1.033a1.479,1.479,0,0,0,.392,1.431,4.122,4.122,0,0,0,2.356,1.408,1.731,1.731,0,0,0,.735.016,2.175,2.175,0,0,0,1.209-1.1,17.762,17.762,0,0,0,3.082-7.733,4.96,4.96,0,0,0-.078-1.706,5.728,5.728,0,0,0-.522-1.248,10.075,10.075,0,0,0-1.472-2.228,8.363,8.363,0,0,0-3.957-2.219,13.4,13.4,0,0,0-5.109-.4c-.458.053-.9.128-1.349.158a13.571,13.571,0,0,1-1.7-.027l-3.371-.2a1.309,1.309,0,0,0,.229,1.223,2.2,2.2,0,0,1,.495,1.182,2.43,2.43,0,0,1-.566,1.145,1.127,1.127,0,0,0-.181,1.2,1.281,1.281,0,0,0,1.145.376l1.7-.018a1.624,1.624,0,0,1,.863.149,1.319,1.319,0,0,1,.527,1.019,6.735,6.735,0,0,0,.133,1.179.953.953,0,0,0,.829.735.618.618,0,0,1,.332.025.421.421,0,0,1,.16.321c.119.717-.1,2.04.648,2.439A2.637,2.637,0,0,0,664.906,252.189Z" transform="translate(-518.116 -194.469)" fill="#663d5c"/>
  <path id="Pfad_4820" data-name="Pfad 4820" d="M688.864,353.4a3.732,3.732,0,0,0-3.927,2.507c-.916,2.608-2.443,7.314-2.061,9.173.538,2.636,1.172,7.03,1.172,7.03s2.782,1.6,1.374,3.22a9.118,9.118,0,0,0-1.807,3.906,4.06,4.06,0,0,0-2.2,2.441c-.389,1.66-3.027,3.952-3.027,3.952l-3.952,3.955s6.54,6.641,7.859,6.979l4.051-4.735,4.783-6.345,4.149-4.351s.975-2.29.488-6.641A31.781,31.781,0,0,0,693.377,366l.147-1.465S693.972,354.033,688.864,353.4Z" transform="translate(-532.394 -280.637)" opacity="0.1"/>
  <path id="Pfad_4821" data-name="Pfad 4821" d="M690.571,353.4a3.733,3.733,0,0,0-3.922,2.507c-.916,2.608-2.443,7.314-2.061,9.173.536,2.636,1.17,7.03,1.17,7.03s2.782,1.6,1.374,3.22a9.1,9.1,0,0,0-1.8,3.906,4.068,4.068,0,0,0-2.2,2.441c-.392,1.66-3.025,3.952-3.025,3.952l-3.955,3.955s6.54,6.641,7.859,6.979l4.051-4.735,4.772-6.345,4.149-4.351s.978-2.29.488-6.641A31.92,31.92,0,0,0,695.078,366l.147-1.466S695.68,354.035,690.571,353.4Z" transform="translate(-533.713 -280.639)" fill="#585b8a"/>
  <path id="Pfad_4822" data-name="Pfad 4822" d="M721.28,418.34s4.149,5.074,5.908,3.952S721.28,418.34,721.28,418.34Z" transform="translate(-568.509 -330.724)" opacity="0.1"/>
  <path id="Pfad_4823" data-name="Pfad 4823" d="M728.1,401.28c.44.147,4.053,5.175,5.908,4.58S728.1,401.28,728.1,401.28Z" transform="translate(-573.767 -317.57)" opacity="0.1"/>
  <path id="Pfad_4824" data-name="Pfad 4824" d="M732.58,439a2.718,2.718,0,0,0,3.222,2.489C738.779,441.1,732.58,439,732.58,439Z" transform="translate(-577.221 -346.653)" opacity="0.1"/>
  <path id="Pfad_4825" data-name="Pfad 4825" d="M615.6,301.83l-1.61,3.588,2.01-2.04Z" transform="translate(-473.396 -232.716)" opacity="0.1"/>
  <path id="Pfad_4826" data-name="Pfad 4826" d="M615.6,300.98l-1.61,3.588,2.01-2.04Z" transform="translate(-473.396 -232.06)" fill="#f0f3f7"/>
  <path id="Pfad_4827" data-name="Pfad 4827" d="M581.253,468.821l-1.2-.254-2.2-4.138.222-1.479Z" transform="translate(-445.532 -356.942)" opacity="0.3"/>
  <path id="Pfad_4828" data-name="Pfad 4828" d="M668.546,487.65l-.263,1.372v0l-3.123,2.549-1.179-.25Z" transform="translate(-511.939 -375.986)" opacity="0.3"/>
  <path id="Pfad_4829" data-name="Pfad 4829" d="M443.785,369.15c-.6.1-1.191.192-1.727.261-2.977.392-10.057-3.123-10.057-3.123s-8.64-7.224-11.129-14.057,2.977-7.859,2.977-7.859c2.061-1.172,6.542,2.1,7.176,2.636a4.076,4.076,0,0,1,1.122,2.782c-.05.879,1.465,2,1.465,2s2.587,4.49,3.222,4.978a2.547,2.547,0,0,1,.975,1.759c.195.831,1.9,1.514,2.636,1.463s1.6.245,1.6.634c0,.314.717.469,1.305.52C443.528,363.648,443.7,366.927,443.785,369.15Z" transform="translate(-336.389 -273.499)" opacity="0.1"/>
  <path id="Pfad_4830" data-name="Pfad 4830" d="M445.076,365.806c-.458.073-.9.14-1.31.195-2.977.392-10.055-3.123-10.055-3.123s-8.64-7.224-11.129-14.057,2.977-7.859,2.977-7.859c2.061-1.172,6.54,2.1,7.174,2.636a4.089,4.089,0,0,1,1.124,2.782c-.048.879,1.463,2,1.463,2s2.588,4.49,3.222,4.978a2.558,2.558,0,0,1,.978,1.759c.2.831,1.9,1.511,2.636,1.463s1.6.245,1.6.634c0,.229.408.382.861.458.018.266.034.547.055.84C444.826,360.764,444.982,363.636,445.076,365.806Z" transform="translate(-337.707 -270.87)" opacity="0.1"/>
  <path id="Pfad_4831" data-name="Pfad 4831" d="M569.767,428.84l-.185,4.387h-.2L568.97,433l.05-3.781A6.643,6.643,0,0,1,569.767,428.84Z" transform="translate(-451.075 -338.82)" opacity="0.1"/>
  <path id="Pfad_4832" data-name="Pfad 4832" d="M423.849,342.664s-5.466,1.026-2.977,7.859S432,364.583,432,364.583s7.078,3.513,10.057,3.123,7.515-1.415,8.1-1.269,4.541.147,4.541.147L454.9,362l-4.58-.245-2.342-.488s-.831-.687-1.319-.586-1.511-.586-1.511-.586a2.918,2.918,0,0,0-1.374-.634c-.591,0-1.708-.147-1.708-.536s-.879-.687-1.6-.634-2.452-.634-2.654-1.475a2.548,2.548,0,0,0-.975-1.756c-.634-.488-3.222-4.98-3.222-4.98s-1.514-1.122-1.466-2a4.1,4.1,0,0,0-1.122-2.784C430.385,344.762,425.9,341.494,423.849,342.664Z" transform="translate(-336.389 -272.183)" fill="#dce6f2"/>
  <path id="Pfad_4833" data-name="Pfad 4833" d="M491.9,412.15s-2.1,2.1-1.564,2.489Z" transform="translate(-390.379 -325.951)" opacity="0.1"/>
  <path id="Pfad_4834" data-name="Pfad 4834" d="M500.1,419.4s-2.734,2.1-2,2.246S500.1,419.4,500.1,419.4Z" transform="translate(-396.337 -331.541)" opacity="0.1"/>
  <path id="Pfad_4835" data-name="Pfad 4835" d="M487,433c.392.2,6.2,3.664,8.4,3.613Z" transform="translate(-387.875 -342.027)" opacity="0.1"/>
  <path id="Pfad_4836" data-name="Pfad 4836" d="M458.327,314.961s-1.026,3.368-1.417,3.368c-.307,0-5.459-4.172-7.609-5.926l.094-.078a4.609,4.609,0,0,1,.975-2.29C451.15,309.259,458.327,314.961,458.327,314.961Z" transform="translate(-358.808 -247.163)" opacity="0.1"/>
  <path id="Pfad_4837" data-name="Pfad 4837" d="M457.467,313.251s-1.024,3.368-1.415,3.368c-.309,0-5.461-4.172-7.611-5.926l.094-.078a4.621,4.621,0,0,1,.978-2.29C450.292,307.549,457.467,313.251,457.467,313.251Z" transform="translate(-358.145 -245.845)" fill="#dce6f2"/>
  <g id="Gruppe_1291" data-name="Gruppe 1291" transform="translate(85.498 45.22)" opacity="0.15">
    <path id="Pfad_4838" data-name="Pfad 4838" d="M427.49,282.54h0c.687,1.569,2.578,2.329,3.675,3.579C430.513,284.583,428.605,283.829,427.49,282.54Z" transform="translate(-427.49 -271.24)"/>
    <path id="Pfad_4839" data-name="Pfad 4839" d="M447.929,293.864a1.646,1.646,0,0,1-1.5.767,4.383,4.383,0,0,1-1.507-.385,2.93,2.93,0,0,1,.389.829,4.786,4.786,0,0,0,1.7.458,1.629,1.629,0,0,0,1.5-.767c.437-.836-.018-1.55-.552-2.226A1.454,1.454,0,0,1,447.929,293.864Z" transform="translate(-440.929 -278.95)"/>
    <path id="Pfad_4840" data-name="Pfad 4840" d="M461.213,236.627a7.851,7.851,0,0,0-.6-1.2,7.491,7.491,0,0,1-.25-.98,3.037,3.037,0,0,0-.7-1.257,2.918,2.918,0,0,1,.117.346,7.876,7.876,0,0,0,.256.985,7.849,7.849,0,0,1,.6,1.2,1.243,1.243,0,0,1-.916,1.433c-.847.185-1.814-.547-2.542-.076a1.829,1.829,0,0,0-.609,1.411q-.153,1.374-.311,2.732a3.274,3.274,0,0,1-.2.939,2.359,2.359,0,0,1-2.246,1.2,1.349,1.349,0,0,1-.966-.321,6.377,6.377,0,0,0-.419-.531c-1.145-.962-1.493,1.39-1.191,2.061a4.149,4.149,0,0,0,.559.84c-.252-.756.1-2.931,1.218-2a5.92,5.92,0,0,1,.417.531,1.358,1.358,0,0,0,.969.321,2.359,2.359,0,0,0,2.246-1.2,3.276,3.276,0,0,0,.2-.941q.156-1.374.311-2.729a1.835,1.835,0,0,1,.607-1.411c.73-.472,1.7.261,2.544.073A1.241,1.241,0,0,0,461.213,236.627Z" transform="translate(-445.715 -233.19)"/>
  </g>
  <path id="Pfad_4841" data-name="Pfad 4841" d="M669.628,257.639a1.77,1.77,0,0,1-.735-.018,4.122,4.122,0,0,1-2.354-1.406,1.474,1.474,0,0,1-.392-1.433c.16-.387.582-.63.687-1.033a1.534,1.534,0,0,0-.039-.74l-.247-1.129c-.071-.321-.195-.7-.513-.774s-.584.185-.833.382a2.608,2.608,0,0,1-2.519.414c-.733-.4-.529-1.722-.648-2.439a.428.428,0,0,0-.16-.321.653.653,0,0,0-.334-.025.959.959,0,0,1-.829-.735,6.511,6.511,0,0,1-.13-1.179,1.321,1.321,0,0,0-.529-1.019,1.647,1.647,0,0,0-.863-.149l-1.7.018c-.419,0-.916-.027-1.145-.376a1.141,1.141,0,0,1,.181-1.2,2.371,2.371,0,0,0,.566-1.145,2.154,2.154,0,0,0-.495-1.182,2.118,2.118,0,0,1-.289-.655l-.488-.03a1.318,1.318,0,0,0,.229,1.223,2.184,2.184,0,0,1,.495,1.179,2.431,2.431,0,0,1-.566,1.145,1.121,1.121,0,0,0-.179,1.2,1.28,1.28,0,0,0,1.145.378l1.7-.021a1.645,1.645,0,0,1,.863.151,1.315,1.315,0,0,1,.529,1.019,6.33,6.33,0,0,0,.133,1.179.948.948,0,0,0,.829.733.67.67,0,0,1,.332.025.43.43,0,0,1,.16.323c.119.714-.1,2.04.648,2.439a2.6,2.6,0,0,0,2.519-.414c.25-.2.527-.458.836-.385s.442.458.511.774l.25,1.131a1.531,1.531,0,0,1,.037.74c-.115.4-.538.646-.7,1.03a1.479,1.479,0,0,0,.392,1.433,4.122,4.122,0,0,0,2.37,1.406,1.77,1.77,0,0,0,.735.018,1.726,1.726,0,0,0,.953-.724A1.273,1.273,0,0,1,669.628,257.639Z" transform="translate(-517.935 -194.354)" opacity="0.1"/>
  <ellipse id="Ellipse_175" data-name="Ellipse 175" cx="5.535" cy="0.85" rx="5.535" ry="0.85" transform="translate(41.107 162.714)" fill="#3182ce" opacity="0.1"/>
  <ellipse id="Ellipse_176" data-name="Ellipse 176" cx="5.535" cy="0.85" rx="5.535" ry="0.85" transform="translate(234.351 140.626)" fill="#3182ce" opacity="0.1"/>
  <ellipse id="Ellipse_177" data-name="Ellipse 177" cx="16.029" cy="2.459" rx="16.029" ry="2.459" transform="translate(167.433 173.249)" fill="#3182ce" opacity="0.1"/>
  <ellipse id="Ellipse_178" data-name="Ellipse 178" cx="12.503" cy="1.919" rx="12.503" ry="1.919" transform="translate(216.525 163.371)" fill="#3182ce" opacity="0.1"/>
  <ellipse id="Ellipse_179" data-name="Ellipse 179" cx="21.202" cy="3.254" rx="21.202" ry="3.254" transform="translate(205.767 181.156)" fill="#3182ce" opacity="0.1"/>
  <ellipse id="Ellipse_180" data-name="Ellipse 180" cx="16.029" cy="2.459" rx="16.029" ry="2.459" transform="translate(6.924 184.813)" fill="#3182ce" opacity="0.1"/>
  <path id="Pfad_4842" data-name="Pfad 4842" d="M253.081,631.85s.627.82-.289,2.061-1.672,2.29-1.374,3.055c0,0,1.374-2.29,2.519-2.331S254.319,633.233,253.081,631.85Z" transform="translate(-206.187 -495.344)" fill="#3182ce"/>
  <path id="Pfad_4843" data-name="Pfad 4843" d="M253.218,631.85a.916.916,0,0,1,.128.256c1.1,1.292,1.683,2.494.627,2.519-.982.027-2.162,1.786-2.443,2.23a.859.859,0,0,0,.032.1s1.374-2.29,2.519-2.331S254.456,633.233,253.218,631.85Z" transform="translate(-206.324 -495.344)" opacity="0.1"/>
  <path id="Pfad_4844" data-name="Pfad 4844" d="M263.507,635.785c0,.289-.034.522-.073.522s-.073-.229-.073-.522.041-.151.08-.151S263.507,635.5,263.507,635.785Z" transform="translate(-215.445 -498.235)" fill="#ffd037"/>
  <path id="Pfad_4845" data-name="Pfad 4845" d="M264.078,637.249c-.252.137-.474.229-.492.185s.169-.174.424-.314.153-.037.172,0S264.332,637.109,264.078,637.249Z" transform="translate(-215.618 -499.353)" fill="#ffd037"/>
  <path id="Pfad_4846" data-name="Pfad 4846" d="M239.7,631.85s-.627.82.289,2.061,1.674,2.29,1.374,3.055c0,0-1.374-2.29-2.507-2.331S238.456,633.233,239.7,631.85Z" transform="translate(-196.119 -495.344)" fill="#3182ce"/>
  <path id="Pfad_4847" data-name="Pfad 4847" d="M239.685,631.85a1.01,1.01,0,0,0-.128.256c-1.1,1.292-1.683,2.494-.627,2.519.982.027,2.162,1.786,2.446,2.23a.881.881,0,0,1-.034.1s-1.374-2.29-2.507-2.331S238.439,633.233,239.685,631.85Z" transform="translate(-196.102 -495.344)" opacity="0.1"/>
  <path id="Pfad_4848" data-name="Pfad 4848" d="M239.35,635.785c0,.289.032.522.071.522s.073-.229.073-.522-.041-.151-.08-.151S239.35,635.5,239.35,635.785Z" transform="translate(-196.933 -498.235)" fill="#ffd037"/>
  <path id="Pfad_4849" data-name="Pfad 4849" d="M237.081,637.249c.254.137.474.229.495.185s-.172-.174-.426-.314-.153-.037-.172,0S236.827,637.109,237.081,637.249Z" transform="translate(-195.065 -499.353)" fill="#ffd037"/>
  <ellipse id="Ellipse_181" data-name="Ellipse 181" cx="6.556" cy="1.005" rx="6.556" ry="1.005" transform="translate(38.682 145.881)" fill="#3182ce" opacity="0.1"/>
  <path id="Pfad_4850" data-name="Pfad 4850" d="M243.676,648.062l-.032.256-.044.362-.018.151-.044.362-.021.151-.044.362-.5,4.122c-.044.366-.643.653-1.374.653H239c-.724,0-1.324-.286-1.374-.653l-.5-4.122-.044-.362-.018-.151-.046-.362-.018-.151-.044-.362-.032-.256c-.025-.208.3-.382.71-.382h5.333C243.376,647.68,243.7,647.854,243.676,648.062Z" transform="translate(-195.063 -507.549)" fill="#65617d"/>
  <path id="Pfad_4851" data-name="Pfad 4851" d="M189.646,614.76l-.044.362H183l-.044-.362Z" transform="translate(-141.065 -473.99)" fill="#9d9cb5"/>
  <path id="Pfad_4852" data-name="Pfad 4852" d="M189.793,617l-.044.362h-6.473L183.23,617Z" transform="translate(-141.273 -475.717)" fill="#9d9cb5"/>
  <path id="Pfad_4853" data-name="Pfad 4853" d="M189.947,619.24l-.046.362h-6.347l-.044-.362Z" transform="translate(-141.489 -477.444)" fill="#9d9cb5"/>
  <path id="Pfad_4854" data-name="Pfad 4854" d="M1082.416,618s-.783,3.645,2.7,4.076l.215-.405S1082.631,619.131,1082.416,618Z" transform="translate(-846.893 -484.665)" fill="#3182ce"/>
  <path id="Pfad_4855" data-name="Pfad 4855" d="M1090.054,615.45l-.811.172-.08.018a7.316,7.316,0,0,1-2.134-5.67,9.656,9.656,0,0,0,1.033,1.633A9.761,9.761,0,0,1,1090.054,615.45Z" transform="translate(-850.507 -478.474)" fill="#3182ce"/>
  <path id="Pfad_4856" data-name="Pfad 4856" d="M1094.951,611.284a.508.508,0,0,1-.435.057c-2.079-.485-1.374-7.261-1.374-7.261.115.053.229.916.719,2.029C1094.7,608.062,1095.62,610.794,1094.951,611.284Z" transform="translate(-855.132 -473.932)" fill="#3182ce"/>
  <path id="Pfad_4857" data-name="Pfad 4857" d="M1109.565,618s.135,3.645-3.348,4.076l-.218-.412S1109.35,619.131,1109.565,618Z" transform="translate(-865.134 -484.665)" fill="#3182ce"/>
  <path id="Pfad_4858" data-name="Pfad 4858" d="M1104.85,610a6.742,6.742,0,0,1-2.78,5.67l-.082-.018-.808-.172a9.878,9.878,0,0,1,1.99-3.847A8.81,8.81,0,0,1,1104.85,610Z" transform="translate(-861.418 -478.497)" fill="#3182ce"/>
  <path id="Pfad_4859" data-name="Pfad 4859" d="M1100.31,610.939a1.266,1.266,0,0,1-.458.355h0a.9.9,0,0,1-.172.057c-.511.119-.687-.25-.66-.877a16.23,16.23,0,0,1,1.374-4.5,5.622,5.622,0,0,1,1.305-1.885S1101.668,609.363,1100.31,610.939Z" transform="translate(-859.751 -473.94)" fill="#3182ce"/>
  <path id="Pfad_4860" data-name="Pfad 4860" d="M1098.3,593.7s-2.322,8.243-.323,9.475S1098.812,594.428,1098.3,593.7Z" transform="translate(-858.322 -465.929)" fill="#3182ce"/>
  <path id="Pfad_4861" data-name="Pfad 4861" d="M1082.416,618s-.783,3.645,2.7,4.076l.215-.405S1082.631,619.131,1082.416,618Z" transform="translate(-846.893 -484.665)" opacity="0.1"/>
  <path id="Pfad_4862" data-name="Pfad 4862" d="M1090.054,615.45l-.811.172-.08.018a7.316,7.316,0,0,1-2.134-5.67,9.656,9.656,0,0,0,1.033,1.633A9.761,9.761,0,0,1,1090.054,615.45Z" transform="translate(-850.507 -478.474)" opacity="0.1"/>
  <path id="Pfad_4863" data-name="Pfad 4863" d="M1094.951,611.284a.508.508,0,0,1-.435.057c-2.079-.485-1.374-7.261-1.374-7.261.115.053.229.916.719,2.029C1094.7,608.062,1095.62,610.794,1094.951,611.284Z" transform="translate(-855.132 -473.932)" opacity="0.1"/>
  <path id="Pfad_4864" data-name="Pfad 4864" d="M1109.565,618s.135,3.645-3.348,4.076l-.218-.412S1109.35,619.131,1109.565,618Z" transform="translate(-865.134 -484.665)" opacity="0.1"/>
  <path id="Pfad_4865" data-name="Pfad 4865" d="M1104.85,610a6.742,6.742,0,0,1-2.78,5.67l-.082-.018-.808-.172a9.878,9.878,0,0,1,1.99-3.847A8.81,8.81,0,0,1,1104.85,610Z" transform="translate(-861.418 -478.497)" opacity="0.1"/>
  <path id="Pfad_4866" data-name="Pfad 4866" d="M1100.31,610.939a1.266,1.266,0,0,1-.458.355h0a.9.9,0,0,1-.172.057c-.511.119-.687-.25-.66-.877a16.23,16.23,0,0,1,1.374-4.5,5.622,5.622,0,0,1,1.305-1.885S1101.668,609.363,1100.31,610.939Z" transform="translate(-859.751 -473.94)" opacity="0.1"/>
  <path id="Pfad_4867" data-name="Pfad 4867" d="M1098.3,593.7s-2.322,8.243-.323,9.475S1098.812,594.428,1098.3,593.7Z" transform="translate(-858.322 -465.929)" opacity="0.1"/>
  <path id="Pfad_4868" data-name="Pfad 4868" d="M1082.6,618s-.458,3.645,3.023,4.076l.215-.405S1082.818,619.131,1082.6,618Z" transform="translate(-847.079 -484.665)" fill="#3182ce"/>
  <path id="Pfad_4869" data-name="Pfad 4869" d="M1090.354,615.473l-.811.172-.08.018A6.961,6.961,0,0,1,1087,610s.637.687,1.356,1.633A9.622,9.622,0,0,1,1090.354,615.473Z" transform="translate(-850.484 -478.497)" fill="#3182ce"/>
  <path id="Pfad_4870" data-name="Pfad 4870" d="M1094.942,620.947l-.811.172c-.767-.673-1.072-2.432-1.182-4.019A9.761,9.761,0,0,1,1094.942,620.947Z" transform="translate(-855.072 -483.971)" opacity="0.1"/>
  <path id="Pfad_4871" data-name="Pfad 4871" d="M1095.565,611.284a.513.513,0,0,1-.437.057c-2.079-.485-1.7-7.261-1.7-7.261a9.413,9.413,0,0,1,1.042,2.029C1095.31,608.062,1096.231,610.794,1095.565,611.284Z" transform="translate(-855.42 -473.932)" fill="#3182ce"/>
  <path id="Pfad_4872" data-name="Pfad 4872" d="M1110.668,618s.458,3.645-3.023,4.076l-.215-.405S1110.453,619.131,1110.668,618Z" transform="translate(-866.237 -484.665)" fill="#3182ce"/>
  <path id="Pfad_4873" data-name="Pfad 4873" d="M1105.938,610a6.951,6.951,0,0,1-2.457,5.67l-.08-.018-.811-.172a9.853,9.853,0,0,1,1.992-3.847C1105.3,610.687,1105.938,610,1105.938,610Z" transform="translate(-862.505 -478.497)" fill="#3182ce"/>
  <path id="Pfad_4874" data-name="Pfad 4874" d="M1104.582,617.1a7.491,7.491,0,0,1-1.033,3.868,1.165,1.165,0,0,1-.149.151l-.811-.172A9.732,9.732,0,0,1,1104.582,617.1Z" transform="translate(-862.505 -483.971)" opacity="0.1"/>
  <path id="Pfad_4875" data-name="Pfad 4875" d="M1101.721,610.939a1.237,1.237,0,0,1-.458.355h0a.917.917,0,0,1-.169.057c-.513.119-.687-.25-.662-.877a16.389,16.389,0,0,1,1.374-4.5,8.81,8.81,0,0,1,.982-1.885S1103.079,609.363,1101.721,610.939Z" transform="translate(-860.839 -473.94)" fill="#3182ce"/>
  <path id="Pfad_4876" data-name="Pfad 4876" d="M1098.75,618.115a.55.55,0,0,1-.33-.105c-.978-.609-1-2.894-.765-5.07C1098.5,614.893,1099.417,617.625,1098.75,618.115Z" transform="translate(-858.606 -480.764)" opacity="0.1"/>
  <path id="Pfad_4877" data-name="Pfad 4877" d="M1101.729,617.284c-.112.245-.263.373-.458.355h0a.616.616,0,0,1-.277-.105,1.479,1.479,0,0,1-.554-.714,16.385,16.385,0,0,1,1.374-4.5C1102.038,614.328,1102.114,616.458,1101.729,617.284Z" transform="translate(-860.847 -480.286)" opacity="0.1"/>
  <path id="Pfad_4878" data-name="Pfad 4878" d="M1099.132,593.7s-2,8.243,0,9.475S1099.645,594.428,1099.132,593.7Z" transform="translate(-859.155 -465.929)" fill="#3182ce"/>
  <path id="Pfad_4879" data-name="Pfad 4879" d="M1036.754,597.61h-8.314v1.376h1.269l.032.163.508,2.672h4.834l.508-2.672.03-.163h1.133Z" transform="translate(-792.944 -460.767)" fill="#4b4770"/>
  <path id="Pfad_4880" data-name="Pfad 4880" d="M1036.754,597.61h-8.314v1.376h1.269l.032.163.508,2.672h4.834l.508-2.672.03-.163h1.133Z" transform="translate(-792.944 -460.767)" opacity="0.1"/>
  <path id="Pfad_4881" data-name="Pfad 4881" d="M1041.05,601.14l-.14.731-.508,2.672h-4.834l-.508-2.672-.14-.731Z" transform="translate(-797.94 -463.489)" fill="#4b4770"/>
  <path id="Pfad_4882" data-name="Pfad 4882" d="M1041.05,601.14l-.14.731h-5.851l-.14-.731Z" transform="translate(-797.94 -463.489)" opacity="0.1"/>
  <rect id="Rechteck_1663" data-name="Rechteck 1663" width="8.314" height="1.376" transform="translate(235.819 136.843)" fill="#4b4770"/>
  <path id="Pfad_4883" data-name="Pfad 4883" d="M145.39,730.423a3.992,3.992,0,0,0-.522.985c-.032.085-.064.183-.1.277a1,1,0,0,0-.181-.064,2.52,2.52,0,0,0-.817-.069c0-.108.014-.229.016-.337.034-1.207-.108-2.887-1.259-2.175-1.1.687-.316,1.832.4,2.565.062.064.124.124.183.181-.65.458-.774,1.541-.882,2.665a6.214,6.214,0,0,1-1.7,3.052c-.064.071-.121.135-.179.195a2.324,2.324,0,0,0-1.843-.474c-.025-.1-.055-.2-.085-.309-.513-1.853-1.578-5.061-2.936-5.764l.179-.229c.577-.753,1.227-1.875.268-2.162s-1.046.971-.994,1.914q.014.179.027.337a1.4,1.4,0,0,0-1,.49l-.149-.176c-.779-.916-2.205-2.375-2.638-1.273-.4,1.026.854,2.358,1.738,3.13l.055.048c-.593,2.407,2,4.369,3.391,5.228l.181.11c-1.923,2.267-3.112,6.517-3.112,6.517l5.386.962s3.572-3.082,3.114-5.976h.037c3.57-.714,4.38-4.52,3.824-6.78l.064-.025a4.042,4.042,0,0,0,1.653-1.25A1.326,1.326,0,0,0,145.39,730.423Z" transform="translate(-113.472 -570.031)" fill="#3182ce"/>
  <path id="Pfad_4884" data-name="Pfad 4884" d="M145.39,730.423a3.992,3.992,0,0,0-.522.985c-.032.085-.064.183-.1.277a1,1,0,0,0-.181-.064,2.52,2.52,0,0,0-.817-.069c0-.108.014-.229.016-.337.034-1.207-.108-2.887-1.259-2.175-1.1.687-.316,1.832.4,2.565.062.064.124.124.183.181-.65.458-.774,1.541-.882,2.665a6.214,6.214,0,0,1-1.7,3.052c-.064.071-.121.135-.179.195a2.324,2.324,0,0,0-1.843-.474c-.025-.1-.055-.2-.085-.309-.513-1.853-1.578-5.061-2.936-5.764l.179-.229c.577-.753,1.227-1.875.268-2.162s-1.046.971-.994,1.914q.014.179.027.337a1.4,1.4,0,0,0-1,.49l-.149-.176c-.779-.916-2.205-2.375-2.638-1.273-.4,1.026.854,2.358,1.738,3.13l.055.048c-.593,2.407,2,4.369,3.391,5.228l.181.11c-1.923,2.267-3.112,6.517-3.112,6.517l5.386.962s3.572-3.082,3.114-5.976h.037c3.57-.714,4.38-4.52,3.824-6.78l.064-.025a4.042,4.042,0,0,0,1.653-1.25A1.326,1.326,0,0,0,145.39,730.423Z" transform="translate(-113.472 -570.031)" opacity="0.1"/>
  <path id="Pfad_4885" data-name="Pfad 4885" d="M135.779,735.154l-.63,1.832s-.35-.247-.792-.637c-.884-.772-2.141-2.1-1.738-3.13.433-1.1,1.859.353,2.638,1.273C135.571,734.859,135.779,735.154,135.779,735.154Z" transform="translate(-114.582 -573.196)" fill="#3182ce"/>
  <path id="Pfad_4886" data-name="Pfad 4886" d="M150,730.936a8.729,8.729,0,0,1-.614.724,9.668,9.668,0,0,1-.112-.971c-.053-.943.048-2.2.994-1.914S150.575,730.182,150,730.936Z" transform="translate(-127.473 -570.043)" fill="#3182ce"/>
  <path id="Pfad_4887" data-name="Pfad 4887" d="M181.913,731.72c-.018.607-.078,1.092-.078,1.092a8,8,0,0,1-.785-.7c-.712-.74-1.5-1.88-.4-2.565C181.794,728.831,181.936,730.514,181.913,731.72Z" transform="translate(-151.254 -570.536)" fill="#3182ce"/>
  <path id="Pfad_4888" data-name="Pfad 4888" d="M194.269,735.986a4.041,4.041,0,0,1-1.653,1.25,4.947,4.947,0,0,1-.554.2l-.742-1.042a7.369,7.369,0,0,1,.307-1.012,3.993,3.993,0,0,1,.522-.985A1.325,1.325,0,0,1,194.269,735.986Z" transform="translate(-159.901 -574.007)" fill="#3182ce"/>
  <path id="Pfad_4889" data-name="Pfad 4889" d="M141.37,740.11c.314.366.522.65.522.65l-.63,1.832s-.35-.247-.792-.637a3.6,3.6,0,0,1,.71-1.619C141.242,740.261,141.308,740.183,141.37,740.11Z" transform="translate(-120.695 -578.814)" opacity="0.1"/>
  <path id="Pfad_4890" data-name="Pfad 4890" d="M150.036,737.517a8.722,8.722,0,0,1-.614.724,9.662,9.662,0,0,1-.112-.971A1.266,1.266,0,0,1,150.036,737.517Z" transform="translate(-127.511 -576.624)" opacity="0.1"/>
  <path id="Pfad_4891" data-name="Pfad 4891" d="M146.191,745.947l-1.566.687s-.341-.165-.833-.472c-1.646-1.012-4.955-3.561-2.748-6.565s4.069,2.384,4.809,5.019C146.074,745.419,146.191,745.947,146.191,745.947Z" transform="translate(-120.57 -577.736)" fill="#3182ce"/>
  <path id="Pfad_4892" data-name="Pfad 4892" d="M184.18,740.009a1.287,1.287,0,0,1,.863-.389c-.018.607-.078,1.092-.078,1.092A8,8,0,0,1,184.18,740.009Z" transform="translate(-154.396 -578.436)" opacity="0.1"/>
  <path id="Pfad_4893" data-name="Pfad 4893" d="M192.636,742.313a4.935,4.935,0,0,1-.554.2l-.742-1.042a7.367,7.367,0,0,1,.307-1.012A2.7,2.7,0,0,1,192.636,742.313Z" transform="translate(-159.917 -579.084)" opacity="0.1"/>
  <path id="Pfad_4894" data-name="Pfad 4894" d="M169.4,749.557c-.085.018-.174.034-.263.048-5.251.8-1.731-2.036-1.731-2.036s.229-.229.556-.575a6.2,6.2,0,0,0,1.7-3.052c.165-1.7.355-3.3,2.363-2.83C173.99,741.575,174.368,748.561,169.4,749.557Z" transform="translate(-140.57 -579.523)" fill="#3182ce"/>
  <rect id="Rechteck_1664" data-name="Rechteck 1664" width="10.032" height="2.638" transform="translate(18.697 183.107)" fill="#d4dfec"/>
  <rect id="Rechteck_1665" data-name="Rechteck 1665" width="13.107" height="9.205" transform="translate(17.103 174.534)" fill="#d4dfec"/>
  <rect id="Rechteck_1666" data-name="Rechteck 1666" width="10.032" height="2.638" transform="translate(18.697 183.107)" opacity="0.1"/>
  <rect id="Rechteck_1667" data-name="Rechteck 1667" width="13.107" height="9.205" transform="translate(17.103 174.534)" opacity="0.1"/>
  <rect id="Rechteck_1668" data-name="Rechteck 1668" width="10.032" height="2.638" transform="translate(19.356 183.107)" fill="#d4dfec"/>
  <path id="Pfad_4895" data-name="Pfad 4895" d="M157.581,764.51c.229.788.339,1.328.339,1.328l-1.566.687s-.341-.165-.834-.472A4.021,4.021,0,0,1,157.581,764.51Z" transform="translate(-132.299 -597.627)" opacity="0.1"/>
  <path id="Pfad_4896" data-name="Pfad 4896" d="M169.4,769.642c-.085.018-.174.034-.263.048-5.251.8-1.731-2.036-1.731-2.036s.229-.229.556-.575A3.477,3.477,0,0,1,169.4,769.642Z" transform="translate(-140.57 -599.608)" opacity="0.1"/>
  <path id="Pfad_4897" data-name="Pfad 4897" d="M142.72,773.579s2.94-10.533,7.064-7.284-1.678,8.243-1.678,8.243Z" transform="translate(-122.43 -598.523)" fill="#3182ce"/>
  <circle id="Ellipse_182" data-name="Ellipse 182" cx="0.33" cy="0.33" r="0.33" transform="translate(21.444 163.183)" opacity="0.1"/>
  <circle id="Ellipse_183" data-name="Ellipse 183" cx="0.33" cy="0.33" r="0.33" transform="translate(21.417 164.722)" opacity="0.1"/>
  <circle id="Ellipse_184" data-name="Ellipse 184" cx="0.33" cy="0.33" r="0.33" transform="translate(30.982 163.485)" opacity="0.1"/>
  <circle id="Ellipse_185" data-name="Ellipse 185" cx="0.33" cy="0.33" r="0.33" transform="translate(23.288 171.374)" opacity="0.1"/>
  <circle id="Ellipse_186" data-name="Ellipse 186" cx="0.33" cy="0.33" r="0.33" transform="translate(30.295 166.041)" opacity="0.1"/>
  <circle id="Ellipse_187" data-name="Ellipse 187" cx="0.33" cy="0.33" r="0.33" transform="translate(26.887 169.45)" opacity="0.1"/>
  <circle id="Ellipse_188" data-name="Ellipse 188" cx="0.33" cy="0.33" r="0.33" transform="translate(22.571 163.843)" opacity="0.1"/>
  <circle id="Ellipse_189" data-name="Ellipse 189" cx="0.33" cy="0.33" r="0.33" transform="translate(30.075 164.475)" opacity="0.1"/>
  <circle id="Ellipse_190" data-name="Ellipse 190" cx="0.33" cy="0.33" r="0.33" transform="translate(28.948 167.03)" opacity="0.1"/>
  <circle id="Ellipse_191" data-name="Ellipse 191" cx="0.33" cy="0.33" r="0.33" transform="translate(25.486 171.127)" opacity="0.1"/>
  <circle id="Ellipse_192" data-name="Ellipse 192" cx="0.33" cy="0.33" r="0.33" transform="translate(24.771 169.505)" opacity="0.1"/>
  <circle id="Ellipse_193" data-name="Ellipse 193" cx="0.33" cy="0.33" r="0.33" transform="translate(23.066 165.848)" opacity="0.1"/>
  <rect id="Rechteck_1669" data-name="Rechteck 1669" width="10.032" height="0.964" transform="translate(19.356 183.107)" opacity="0.1"/>
  <rect id="Rechteck_1670" data-name="Rechteck 1670" width="13.107" height="9.205" transform="translate(17.762 174.534)" fill="#d4dfec"/>
  <circle id="Ellipse_194" data-name="Ellipse 194" cx="0.33" cy="0.33" r="0.33" transform="translate(25.926 172.61)" opacity="0.1"/>
  <circle id="Ellipse_195" data-name="Ellipse 195" cx="0.33" cy="0.33" r="0.33" transform="translate(23.947 173.022)" opacity="0.1"/>
  <circle id="Ellipse_196" data-name="Ellipse 196" cx="2.395" cy="2.395" r="2.395" transform="translate(9.054 9.512)" fill="#3182ce" opacity="0.1"/>
  <circle id="Ellipse_197" data-name="Ellipse 197" cx="3.206" cy="3.206" r="3.206" transform="translate(238.274 84.058)" fill="#3182ce" opacity="0.1"/>
  <circle id="Ellipse_198" data-name="Ellipse 198" cx="2.34" cy="2.34" r="2.34" transform="translate(245.32 78.054)" fill="#3182ce" opacity="0.1"/>
  <ellipse id="Ellipse_199" data-name="Ellipse 199" cx="3.5" cy="3" rx="3.5" ry="3" transform="translate(12)" fill="#3182ce" opacity="0.1"/>
  <circle id="Ellipse_200" data-name="Ellipse 200" cx="3" cy="3" r="3" transform="translate(0 15)" fill="#3182ce" opacity="0.1"/>
  <g id="Gruppe_1294" data-name="Gruppe 1294" transform="translate(13.739 9.016)">
    <circle id="Ellipse_205" data-name="Ellipse 205" cx="22.898" cy="22.898" r="22.898" fill="#3182ce"/>
    <circle id="Ellipse_206" data-name="Ellipse 206" cx="19.693" cy="19.693" r="19.693" transform="translate(3.206 3.206)" opacity="0.1"/>
    <path id="Pfad_4913" data-name="Pfad 4913" d="M262.01,469.487V466.62a6.656,6.656,0,0,1-3.822-1.249l.6-1.9a6.11,6.11,0,0,0,3.6,1.22,2.755,2.755,0,0,0,2.973-2.781c0-1.561-.974-2.526-2.823-3.377-2.548-1.135-4.122-2.441-4.122-4.909a4.462,4.462,0,0,1,3.772-4.569v-2.866h1.549v2.753a6.078,6.078,0,0,1,3.248.993l-.625,1.873a5.52,5.52,0,0,0-3.148-.965,2.4,2.4,0,0,0-2.648,2.441c0,1.476.924,2.214,3.1,3.235,2.573,1.192,3.872,2.668,3.872,5.193a4.749,4.749,0,0,1-3.947,4.824v2.952Z" transform="translate(-240.055 -434.968)" fill="#f2f2f2"/>
  </g>
</svg>
